<svg width="1440" height="3" viewBox="0 0 1440 3" fill="none" xmlns="http://www.w3.org/2000/svg">
<path d="M40.8244 2.61536C52.1705 2.62324 66.2171 2.57267 77.4425 2.60379C77.5999 2.60423 77.7574 2.60466 77.9147 2.6051C82.5026 2.61782 87.1774 2.63619 92.8333 2.6584C93.5536 2.66123 94.292 2.66419 95.0461 2.66714C101.751 2.69337 109.987 2.72481 121.21 2.75975C158.895 2.87711 188.608 2.79912 197.85 2.77483C216.387 2.72612 236.161 2.72509 263.142 2.72373C265.609 2.7236 268.137 2.72368 270.73 2.72351C272.83 2.72337 274.569 2.76282 274.617 2.81175C274.664 2.86071 273.001 2.90052 270.9 2.90066C268.362 2.90082 265.887 2.90097 263.477 2.90109C263.466 2.90109 263.455 2.90109 263.444 2.90109C236.293 2.90249 216.949 2.90354 198.85 2.95111C189.406 2.97593 158.963 3.05562 120.348 2.93537C109.005 2.90005 100.677 2.86849 93.9314 2.8421C93.1929 2.83921 92.4732 2.83633 91.7735 2.83358C91.7571 2.83351 91.7406 2.83344 91.7241 2.83336C86.0312 2.81102 81.5532 2.79333 77.1625 2.78116C77.0692 2.78094 76.9758 2.78072 76.8825 2.7805C65.5307 2.74902 51.752 2.80015 40.7475 2.79251C38.6467 2.79103 36.9593 2.75013 36.9808 2.70121C37.0034 2.65232 38.7247 2.61394 40.8244 2.61536ZM806.973 2.03375C817.928 1.96886 832.502 1.97602 845.37 2.00492C858.328 2.03402 870.056 2.08637 875.575 2.11851C880.97 2.14993 886.965 2.16009 894.118 2.16634C895.758 2.16778 897.459 2.169 899.219 2.17028C905.031 2.17449 911.497 2.17922 918.596 2.19321C944.671 2.24464 961.67 2.24682 973.811 2.24215C976.308 2.24119 978.632 2.23987 980.807 2.23865C980.81 2.23865 980.814 2.23865 980.818 2.23865C989.026 2.23407 995.15 2.2307 1000.78 2.25089C1010.81 2.28681 1018.99 2.31865 1028.87 2.38086C1042.5 2.46663 1061.91 2.45645 1074.53 2.39746C1075.23 2.39422 1075.94 2.39078 1076.65 2.38741C1085.81 2.34438 1097.08 2.29145 1113.99 2.25199C1128.03 2.2192 1140.27 2.22178 1151.1 2.23102C1154.21 2.23367 1157.17 2.23696 1160.02 2.23998C1167.19 2.2476 1173.62 2.25446 1179.67 2.25047C1217.21 2.2257 1238.85 2.25774 1252.46 2.30595C1262.92 2.34303 1268.77 2.39075 1272.98 2.42522C1274.26 2.43564 1275.38 2.44498 1276.44 2.4523C1285.89 2.51761 1294.57 2.54697 1305 2.58227C1307.32 2.59011 1309.73 2.59829 1312.24 2.60717C1320.66 2.63688 1326.94 2.63174 1331.86 2.61919C1334.01 2.6137 1335.9 2.60693 1337.69 2.60041C1337.72 2.60026 1337.75 2.60011 1337.79 2.59997C1338.03 2.59906 1338.28 2.59824 1338.53 2.59735C1338.71 2.59668 1338.9 2.59582 1339.08 2.59516C1339.15 2.59428 1339.22 2.59371 1339.27 2.5932C1339.31 2.5928 1339.34 2.59251 1339.36 2.59232C1339.36 2.59225 1339.36 2.59218 1339.37 2.59211C1339.72 2.58871 1340.02 2.58736 1340.08 2.58708C1340.19 2.58658 1340.28 2.58636 1340.33 2.58621C1340.59 2.58539 1340.92 2.58492 1341.15 2.58468C1341.72 2.58405 1342.7 2.5833 1344.23 2.5825C1345.56 2.57994 1346.84 2.57558 1348.44 2.57004C1348.54 2.56968 1348.64 2.56932 1348.74 2.56895C1350.3 2.56354 1352.12 2.55734 1354.41 2.55126C1356.49 2.54573 1358.41 2.58061 1358.69 2.62924C1358.97 2.67787 1357.5 2.72176 1355.42 2.72732C1353.27 2.73304 1351.56 2.73894 1350 2.74435C1349.9 2.74472 1349.8 2.74508 1349.7 2.74544C1348.07 2.75108 1346.53 2.75636 1344.87 2.75942C1344.32 2.76045 1343.75 2.76124 1343.21 2.76183C1342.25 2.76402 1341.15 2.76778 1339.84 2.77253C1339.58 2.77348 1339.3 2.77435 1339.03 2.77537C1337.24 2.78189 1335.17 2.78949 1332.83 2.79546C1327.35 2.80944 1320.41 2.81469 1311.24 2.78236C1308.84 2.77388 1306.51 2.76601 1304.24 2.75833C1293.76 2.72295 1284.44 2.69156 1274.41 2.62224C1273.03 2.61273 1271.72 2.60186 1270.3 2.59035C1266.12 2.55623 1261.13 2.51541 1251.45 2.48114C1238.49 2.43522 1217.36 2.40299 1180.04 2.42761C1173.69 2.4318 1166.83 2.42444 1159.53 2.41669C1156.75 2.41373 1153.89 2.41088 1150.97 2.40839C1140.31 2.39929 1128.45 2.39682 1114.89 2.42848C1098.37 2.46706 1087.4 2.51845 1078.28 2.56128C1077.97 2.56281 1077.66 2.56434 1077.34 2.56587C1076.95 2.56771 1076.56 2.56953 1076.18 2.57133C1062.72 2.63421 1042.07 2.64666 1027.02 2.55189C1017.57 2.49242 1009.74 2.4618 999.766 2.42607C994.863 2.4085 989.624 2.4114 981.581 2.4158C979.323 2.41704 976.84 2.41824 974.086 2.41929C961.728 2.42405 944.468 2.42192 918.102 2.36992C911.227 2.35637 905.042 2.35184 899.263 2.34764C897.468 2.34634 895.706 2.345 893.98 2.34349C886.793 2.33721 880.104 2.32695 873.868 2.29063C868.742 2.26078 857.391 2.20972 844.788 2.18141C832.094 2.1529 818.618 2.14862 808.988 2.20566C807.987 2.21159 806.977 2.21744 805.968 2.22335C797.281 2.2742 788.424 2.32603 781.293 2.41229C749.329 2.95432 691.437 2.74791 653.247 2.71524C652.745 2.7148 652.244 2.71437 651.742 2.71393C607.662 2.67626 575.627 2.68104 564.708 2.68269C564.198 2.68276 563.735 2.68285 563.319 2.68291C562.947 2.68296 562.61 2.68309 562.314 2.68312C557.866 2.68358 553.93 2.68987 549.806 2.69645C549.581 2.69681 549.355 2.69717 549.13 2.69754C544.773 2.70447 540.199 2.71124 534.794 2.71064C514.693 2.70843 498.308 2.7165 484.13 2.72506C481.505 2.72664 478.953 2.72808 476.465 2.72964C476.458 2.72964 476.45 2.72964 476.443 2.72964C465.524 2.73651 455.837 2.7427 446.644 2.74274C429.882 2.74283 418.559 2.75404 409.752 2.76611C406.99 2.7699 404.445 2.77377 402.043 2.77747C396.849 2.78548 392.313 2.7925 387.635 2.79494C378.836 2.79955 370.738 2.81172 362.761 2.82356C362.05 2.82461 361.34 2.82557 360.631 2.82661C351.984 2.83937 343.421 2.8512 334.368 2.85151C332.267 2.85159 330.525 2.81179 330.481 2.76283C330.439 2.71392 332.109 2.67422 334.209 2.67415C343.002 2.67384 351.355 2.66244 359.999 2.64969C360.713 2.64863 361.429 2.64747 362.146 2.64641C370.103 2.6346 378.349 2.62249 387.311 2.6178C391.821 2.61544 396.106 2.60884 401.197 2.60098C403.626 2.59723 406.242 2.59318 409.153 2.58918C418.094 2.57692 429.566 2.56547 446.491 2.56538C455.572 2.56533 465.135 2.55936 476.048 2.55249C478.552 2.55092 481.127 2.54929 483.784 2.54769C497.997 2.53911 514.467 2.53106 534.679 2.53328C539.786 2.53384 544.121 2.52751 548.46 2.52061C548.704 2.52025 548.947 2.51988 549.191 2.51952C553.279 2.51299 557.433 2.50624 562.133 2.50576C562.76 2.50569 563.562 2.50568 564.527 2.50554C575.462 2.50389 607.628 2.49897 651.869 2.53678C652.006 2.53693 652.143 2.53707 652.281 2.53722C681.925 2.56256 698.649 2.57686 711.241 2.53307C721.179 2.49852 728.607 2.48968 734.703 2.48546C735.865 2.48465 736.965 2.48389 738.014 2.48327C742.545 2.48063 746.126 2.47852 749.704 2.46624C760.529 2.42907 768.292 2.36819 777.685 2.25458C785.648 2.15828 795.402 2.10131 803.948 2.05144C803.96 2.05137 803.973 2.0513 803.986 2.05122C805 2.04531 805.998 2.03952 806.973 2.03375ZM1384.57 2.43353C1386.67 2.43499 1388.35 2.47573 1388.33 2.52461C1388.31 2.57354 1386.59 2.61212 1384.49 2.61068C1379.48 2.60718 1374.48 2.60369 1369.47 2.60019C1367.37 2.59872 1365.69 2.55799 1365.71 2.5091C1365.73 2.46019 1367.45 2.42161 1369.55 2.42304C1374.56 2.42654 1379.56 2.43003 1384.57 2.43353ZM798.21 1.15194C800.259 1.14203 802.301 1.17303 802.767 1.22097C803.23 1.26887 801.943 1.31569 799.895 1.3256C798.813 1.33084 797.031 1.34032 794.635 1.35312C777.378 1.44529 728.102 1.70851 675.864 1.78538C671.464 1.79186 667.523 1.79826 663.767 1.80438C647.705 1.83061 634.81 1.9565 604.088 1.95138C474.907 1.92985 345.828 1.70485 216.854 1.85917C179.604 1.90375 142.472 1.91041 105.193 1.90744C74.1218 1.90495 17.1678 1.81407 3.7669 1.80476C1.66529 1.8033 -0.0212687 1.76239 0.000202873 1.71346C0.0226541 1.66455 1.74313 1.62617 3.84377 1.62762C17.15 1.63686 73.9146 1.7276 104.869 1.73007C142.076 1.73303 179.133 1.72651 216.311 1.68202C345.434 1.52752 474.928 1.53774 604.258 1.5593C634.682 1.56437 647.065 1.65379 663.07 1.62767C666.834 1.62153 670.797 1.61499 675.238 1.60845C726.744 1.53265 775.271 1.27372 792.735 1.18056C795.208 1.16737 797.064 1.15749 798.21 1.15194ZM895.93 1.226C919.388 1.2126 952.736 1.23647 981.877 1.25746C996.089 1.2677 1009.3 1.27739 1019.88 1.28149C1036.27 1.28785 1046.58 1.33026 1056.82 1.37236C1056.93 1.3728 1057.04 1.37324 1057.15 1.37367C1067.37 1.41574 1077.6 1.45715 1094.25 1.46367C1111.03 1.47024 1134.25 1.44142 1157.67 1.41234C1157.69 1.41234 1157.71 1.41234 1157.73 1.41234C1181.02 1.38342 1204.65 1.26441 1221.73 1.27124C1281.24 1.29506 1317.94 1.41682 1336.49 1.5124C1368.94 1.67959 1405.75 1.49207 1438.91 1.70354C1442.57 1.75037 1436.4 1.88519 1429.66 1.84639C1429.41 1.8453 1429.17 1.84421 1428.93 1.84311C1426.61 1.83295 1424.58 1.82469 1421.72 1.81799C1417.58 1.81251 1414.5 1.81215 1411.69 1.81188C1404.32 1.81116 1353.11 1.77896 1334.99 1.68562C1317.38 1.59492 1281.45 1.6873 1221.56 1.66333C1204.8 1.65662 1181.64 1.56042 1158.22 1.58949C1158.16 1.58956 1158.09 1.58964 1158.03 1.58971C1134.78 1.61857 1111.33 1.64772 1094.27 1.64104C1077.02 1.63428 1066.32 1.59082 1055.96 1.5482C1055.86 1.54776 1055.76 1.54733 1055.66 1.54689C1045.53 1.50518 1035.68 1.46476 1019.9 1.45864C1009.09 1.45444 995.724 1.44492 981.422 1.43461C952.404 1.41368 919.522 1.38986 896.265 1.40315C894.166 1.40432 892.387 1.36558 892.295 1.31665C892.204 1.26775 893.832 1.22721 895.93 1.226ZM896.413 0.121832C962.329 -0.0746022 1028.61 -0.0194525 1093.61 0.188034C1110.57 0.194679 1134.25 0.208441 1157.89 0.222333C1158.16 0.222552 1158.43 0.22277 1158.69 0.222989C1182.08 0.23673 1205.36 0.250378 1222.08 0.257069C1281.59 0.280887 1318.42 0.312882 1336.97 0.408452C1354.27 0.497574 1359.08 0.497833 1366.2 0.498448C1366.39 0.498521 1366.58 0.498594 1366.78 0.498667C1366.79 0.498521 1366.8 0.498375 1366.82 0.49823C1367.06 0.49595 1367.26 0.494647 1367.37 0.494079C1367.59 0.492925 1367.76 0.492496 1367.83 0.492332C1367.98 0.491954 1368.1 0.491927 1368.15 0.491895C1368.33 0.491767 1368.55 0.491801 1368.68 0.491895C1369.95 0.492776 1373.92 0.49814 1377.07 0.505439C1380.29 0.51292 1382.59 0.522557 1385.01 0.53318C1385.26 0.534272 1385.5 0.535365 1385.75 0.536457C1387.93 0.546082 1390.31 0.556548 1393.73 0.567911C1395.82 0.57485 1397.3 0.619716 1397.04 0.668171C1396.78 0.71659 1394.89 0.750212 1392.8 0.743311C1389.2 0.731356 1386.67 0.720218 1384.48 0.710546C1384.24 0.709454 1383.99 0.708362 1383.75 0.70727C1381.43 0.697101 1379.4 0.688849 1376.54 0.682149C1372.4 0.676672 1369.32 0.676302 1366.51 0.676032C1359.14 0.675324 1353.59 0.674786 1335.47 0.581449C1317.87 0.49074 1281.99 0.458189 1222.1 0.434217C1205.35 0.427514 1182.04 0.413866 1158.68 0.400136C1158.4 0.39999 1158.13 0.399845 1157.85 0.399699C1134.2 0.3858 1110.56 0.371811 1093.63 0.365181C1027.66 0.339344 963.05 0.428063 896.753 0.298979C884.554 0.30595 873.404 0.308703 863.073 0.311209C832.67 0.318581 809.338 0.324359 787.096 0.431994C782.22 0.455593 769.438 0.475628 750.967 0.500578C745.554 0.50789 739.616 0.515558 733.199 0.523949C717.467 0.54452 698.828 0.568837 677.829 0.59974C673.43 0.606214 669.489 0.612613 665.733 0.618742C649.67 0.644961 636.991 0.665797 606.268 0.660676C568.466 0.654374 505.128 0.610364 471.254 0.576568C454.289 0.559641 444.711 0.543957 437.936 0.530913C436.049 0.527281 434.39 0.523763 432.868 0.520646C428.891 0.512504 425.802 0.506265 421.755 0.502079C392.606 0.471943 372.199 0.492701 338.767 0.535928C336.672 0.538623 334.845 0.501129 334.687 0.452269C334.529 0.403402 336.101 0.361513 338.195 0.358781C371.677 0.31549 392.396 0.294385 421.941 0.324931C426.167 0.329301 429.474 0.336087 433.521 0.344373C435.022 0.347445 436.624 0.350758 438.414 0.354202C445.077 0.36703 454.553 0.382583 471.43 0.399421C505.243 0.433156 568.488 0.477028 606.174 0.48331C636.598 0.48838 649.031 0.468152 665.036 0.442032C668.799 0.43589 672.759 0.429343 677.198 0.422811C698.226 0.391865 716.915 0.367383 732.655 0.346802C739.064 0.338421 744.988 0.330714 750.379 0.323431C769.223 0.297977 781.233 0.278558 785.411 0.258342C808.433 0.146939 832.778 0.140998 863.462 0.133624C873.68 0.131169 884.604 0.128579 896.413 0.121832ZM218.276 0.496382C220.372 0.493884 222.191 0.531592 222.339 0.580478C222.487 0.629354 220.91 0.671021 218.814 0.673529C207.743 0.686777 199.784 0.697707 193.562 0.706292C182.046 0.722181 176.48 0.729929 168.145 0.728569C146.628 0.725058 125.851 0.723285 107.159 0.721793C76.0883 0.719311 50.7656 0.717332 37.3651 0.708025C35.2639 0.706557 33.577 0.66565 33.5984 0.616721C33.6219 0.567839 35.3424 0.52944 37.442 0.530878C50.7483 0.540119 75.8803 0.542178 106.835 0.544645C125.549 0.546137 146.394 0.54767 168.046 0.551204C176.131 0.552523 181.385 0.545354 192.645 0.529799C198.861 0.521213 206.909 0.509983 218.276 0.496382Z" fill="gray"/>
</svg>
